# xmcd
#
# Track frame offsets:
#   150
#   10009
#   21927
#   37205
#   51646
#   68349
#   79225
#   92180
#   107623
#   120151
#   137017
#   152330
#   166950
#   179376
#
# Disc length: 2616 seconds
#
# Revision: 0
# Processed by: cddbd v1.4PL0 Copyright (c) Steve Scherf et al.
# Submitted via: uFREEDB 1.6.0
#
DISCID=ab0a360e
DTITLE=Varios Artistas - las mejores Rancheras
DYEAR=1997
DGENRE=Alternative
TTITLE0=El rey
TTITLE1=El jinete
TTITLE2=Volver, volver
TTITLE3=Buena o mala
TTITLE4=No volvere
TTITLE5=Ay Jalisco no te rajes
TTITLE6=Corazon, corazon
TTITLE7=Cucurucucu paloma
TTITLE8=Si nos dejan
TTITLE9=No volties pa tras
TTITLE10=Que te valla bonito
TTITLE11=El caballo blanco
TTITLE12=Se me olvido otra vez
TTITLE13=Tata dios
EXTD=
EXTT0=
EXTT1=
EXTT2=
EXTT3=
EXTT4=
EXTT5=
EXTT6=
EXTT7=
EXTT8=
EXTT9=
EXTT10=
EXTT11=
EXTT12=
EXTT13=
PLAYORDER=
